<?xml version="1.0" encoding="UTF-8"?>
<svg version="1.1" viewBox="0 0 1600 1600" width="155" height="155" xmlns="http://www.w3.org/2000/svg">
<path transform="translate(559,115)" d="m0 0h18l30 2 30 4 29 6 23 7 28 11 25 12 18 10 19 12 14 10 12 9 10 8 14 12 31 31 9 11 8 9 13 18 13 19 12 19 13 23 13 26 11 28 11 30 7 25 11 52 5 31 4 46 5 73 5 56 11 90 3 17v3l6 1 29-1 16-3 31-11 17-8 21-13 13-10 10-9 8-8h2v-2h2l2-4 10-12 7-10 10-17 9-17 13-33 8-25 10-43 6-31 4-27 14-112 10-67 5-24 7-28 11-36 10-24 9-19 11-18 14-20 13-15 8-9 11-9 10-7 14-8 15-4h6l-4 8-18 18-9 13-6 12-7 21-6 29-3 20-2 30 1 32 3 34 11 85 10 70 3 28 1 23v37l-2 34-7 50-7 38-6 26-10 33-12 32-16 33-10 18-10 16-13 18-9 12-12 14-9 9-7 8-8 7-7 7-14 11-15 11-22 14-28 15-27 11-30 10-25 5-31 4-15 1h-22l-32-3-17-3-20-6-25-11-20-11-12-8-14-11-7-7-8-7-13-14-15-20-9-15-9-16-10-24-11-33-6-30-5-35-4-37-6-81-4-59-4-43-4-29-6-27-8-31-8-24-13-29-8-15-12-18-8-10-11-12-15-15-13-10-18-11-12-6-38-14-6-2-1 22-12 126-8 63-8 46-8 39-9 39-10 36-9 29-13 37-9 22-9 20-12 25-14 26-13 21-11 15-16 21-11 12-7 8-8 7-12 11-15 11-20 13-15 8-24 9-26 8-29 6-7 1h-9v-2l11-7 24-13 19-13 14-12 13-13 8-10 12-17 9-16 11-23 11-30 8-29 7-37 7-49 5-43 3-49 1-38v-36l-2-60-3-45-5-51-13-98-15-104-5-40 2-4 21-6 32-8 36-10 39-8 26-4 21-2z" fill="#BC1144"/>
<path transform="translate(1410,142)" d="m0 0h6l-4 8-18 18-9 13-6 12-7 21-6 29-3 20-2 30 1 32 3 34 11 85 10 70 3 28 1 23v37l-2 34-7 50-7 38-6 26-10 33-12 32-16 33-10 18-10 16-13 18-9 12-12 14-9 9-6 7-2-1-2-2-8 7-4 4-5-2-3-4-8 2-8 3-29 3-18 1h-19l-24-3v-2l-10-1-13-5-8-5-6-3-11-6-8-5v-2l-5-2-7-6-9-6-7-8-5-5-6-7-9-16-4-9-3-9-2-4-2-7-2-10-4-5-5-10-2-9v-14-3l-2-26v-4l-4-1 2-2-1-5v-5l-1-2 1-4-1-4-1-9-3-31-2-27v-12l-1-2v-15l-1-5-1-21-1-10-1-8-1-17-1-11 2-7 2 2 3 36 4 58 5 56 11 90 3 17v3l6 1 29-1 16-3 31-11 17-8 21-13 13-10 10-9 8-8h2v-2h2l2-4 10-12 7-10 10-17 9-17 13-33 8-25 10-43 6-31 4-27 14-112 10-67 5-24 7-28 11-36 10-24 9-19 11-18 14-20 13-15 8-9 11-9 10-7 14-8z" fill="#72216D"/>
<path transform="translate(553,310)" d="m0 0h32l-1 24-12 126-8 63-8 46-8 39-9 39-10 36-9 29-13 37-9 22-9 20-12 25-14 26-13 21-11 15-16 21-11 12-7 8-8 7-12 11-15 11-20 13-15 8-24 9-26 8-29 6-7 1h-9v-2l11-7 24-13 19-13 14-12 13-13 8-10 12-17 9-16 11-23 11-30 8-29 7-37 7-49 5-43 3-49 1-38v-36l-2-60-3-45-5-51-6-46v-12h1v6h2l3 15v4l3 1 1 3 5-1 20-15 14-10 18-10 19-9 12-4 15-4 12-3 18-3z" fill="#73216D"/>
<path transform="translate(981,1272)" d="m0 0h10l23 3 8 3 5 12 12 50 9 40 8 39 3 4 1 1 6-8 8-16 8-19 11-33 8-32 4-27 1-12 2-3h13l13 3 4 5 5 17 9 43 11 58 5 22 2 6 4-5 7-21 20-65 10-34 7-28 2-2h31l10 1-2 9-4 13-6 21-8 26-11 33-13 34-13 31-8 16-9 14-8 9-7 3h-21l-7-3-4-5-5-15-11-51-5-23-2-5-2 2-6 19-7 17-7 16-8 15-6 12-8 12-6 7-5 2h-18l-7-2-3-4-4-13-8-29-13-50-28-112z" fill="#E33083"/>
<path transform="translate(291,1269)" d="m0 0 10 1 11 4 6 4 9 10 14 19 13 18 18 28 14 25 7 12 5 7 5-105 1-18 1-5 21 3 14 3 3 2v46l-2 48-4 54-5 57-3 3-2 1h-10l-8-3-6-5-11-15-11-17-14-23-26-44-9-15-5-6-2-1v18l-5 104-1 3-2 1-31-1-8-1-1-1v-20l3-59 8-123 1-7z" fill="#E32F82"/>
<path transform="translate(774,1273)" d="m0 0h20l1 1-1 19-3 42-1 20v37l2 18 4 14 4 6 8 7 12 4 14 1 8-2 11-6 7-7 7-14 5-17 4-20 5-44 5-54 2-4 4-1h31l3 1-1 33-3 36-7 46-7 27-6 15-8 14-10 14-10 10-14 8-14 5-13 2h-19l-14-2-14-5-11-8-8-9-8-14-6-16-3-14-2-19v-46l2-34 3-28 2-9 4-4 7-2z" fill="#E33184"/>
<path transform="translate(1410,142)" d="m0 0h6l-4 8-18 18-9 13-6 12-7 21-6 29-3 20-2 30 1 32 3 34v8h-1l-3-20-3-4-2 1-6-2-2-5-2 5-3 3-5 11-3 1v2h-2l1 3-3 3h-2l-2 5-6 1-4 2-5 5-3-1-1 5-4 4h-2l-3 9-1 2h-3l-2 4-6 3-2 6-4 1-1 7h-2l-1 6h-2l-1 7-1 2h2v6l-2 2-1 4-4 9h-2l-1 7-3 11-2-1 1-6 1-2h-2l1-4h-2l1-14 7-50 7-43 8-33 10-35 7-19 11-25 11-20 11-16 8-11 12-14 8-9 11-9 10-7 14-8z" fill="#E22E82"/>
<path transform="translate(656,1269)" d="m0 0h7l20 6 6 4-1 7-10 21-18 30-17 28-9 16-5 11-5 22-11 66-2 3h-19l-20-2v-8l6-36 5-36v-7l-5-12-12-21-11-17-14-21-11-14-8-8-14-9-1-4 8-9 10-6 9-3h7l11 4 8 7 10 13 12 19 10 18 10 16 3 2 2-4 6-9 13-21 17-26 11-18z" fill="#E32F83"/>
<path transform="translate(1257,938)" d="m0 0 3 3v2l-8 7-7 7-14 11-15 11-22 14-28 15-27 11-30 10-25 5-31 4-15 1h-22l-32-3-17-3-14-4v-1l8 1 7 1-24-8-33-17-14-10-5-4v-2l-4-2 1-3v2l4 1 7 4v2l7-2 4 4 7 3 14 5 2 3v2h2v-2h21l6 2v3l7 1 2-2h6l7 2h6l5 2h6l4 2 6 1 7-1 1-1h6l7 4 1-2h5l1-2 4 1v-3l6-2 4-1h5l6-3h8l2 1 1-3 5-2 8-2 1-2 9-2h3l2-5 5 1 7-2h2l1-2 5-1 1-3 7-3-1-2 8-4 3-4 8-2v-3l5-4h6l-1-3-6-1-19-3-6-2v-2h-7l-10-3-5-3 1-4 5 1 8 3 10 2v2h8l16 2h21l27-2 18-2 8-3 9-2 2 4 5 2 10-10z" fill="#E32E82"/>
<path transform="translate(399,679)" d="m0 0h1v15l-1 9-1 27-3 11-3 14-3 28-2 11-1 5 2-3 2 1-2 7 2 1-2 4 2 7-1 2h-2v5h2v7l2 10 6 2 2 4 4 1 1 5h2v2l3-1h7l-1 11-1 9v3l2 1 1-3v3l3 1-1 1 3 1 1 3 6-1v3l-3 2 1 3-4 7h-2l1 3-9 10-8 9-8 7-12 11-15 11-20 13-15 8-24 9-26 8-29 6-7 1h-9v-2l11-7 24-13 19-13 14-12 13-13 8-10 12-17 9-16 11-23 11-30 8-29 7-37 7-49z" fill="#E22F82"/>
<path transform="translate(1358,1272)" d="m0 0h13l1 1-3 69-3 67-2 37-1 33-3 3h-40l-3-3 2-42 5-77 5-62 2-19 3-3z" fill="#E32F83"/>
<path transform="translate(810,204)" d="m0 0 4 1 10 9 8 7 28 28 9 11 8 9 13 18 13 19 12 19 13 23 13 26 11 28 11 30 7 25 11 52 5 31 2 25-2 1-1 8 2 21v7l1 5 1 9 1 21 1 11v10l1 2v14l3 36 2 19 1 12 1 2-1 4 1 3 1 6-1 4 2 1 1 4 1 17 1 10v2 6h-2l1 5-1 5h-2v2l3 1-2 1 1 7-1 13-2 6-6-1-6-16v-2l-2-2v-5l-1-1v-13l-1-1-1-13h-2l1-7 5-14 2-10v-10l1-17v-12l1-10-2-7-2 3-2-10v-10l-1-6v-21l1-9-1-3v-3-5-4-44l-1-17v-11l-1-16-2-12-2-13-4-19-5-31-3-13-1-10-2-1-1-4-2-10-3-1-2-6-3-4-2-6h-2v-2h-2l-5-12v-7l-3-6v-2h-2v-4l-2-1-3-8-2-5-2-6v-2l-2-1 1-1-6-5v-6h-2l-1-6-2-1 1-3h-2l-1-8h-2v-2h-2l-3-6v-2l-3-1v-4h-2l-5-7-4-4v-2h-3v-3l-2-1-6-8 1-1-3-3v-2h-2l-3-3-2-4-4-2-1-3-3-1-1-5-5-2-6-4-5-5h-2l-2-5-2-6 5 1 3 1-1 4h3v2h3v2l2-1-8-9-5-6v-2l-4-2-15-12v-2l-4-2-4-3v-2l-5-2v-2l-2-1z" fill="#B2144F"/>
<path transform="translate(810,204)" d="m0 0 4 1 10 9 8 7 28 28 9 11 8 9 13 18 13 19 12 19 13 23 13 26 11 28 11 30 7 25 11 52 5 31 2 25-2 1-1 4h-2l-2-23-1-9-2-15-6-28-4-27-3-13-1-10-2-1-1-4-2-10-3-1-2-6-3-4-2-6h-2v-2h-2l-5-12v-7l-3-6v-2h-2v-4l-2-1-3-8-2-5-2-6v-2l-2-1 1-1-6-5v-6h-2l-1-6-2-1 1-3h-2l-1-8h-2v-2h-2l-3-6v-2l-3-1v-4h-2l-5-7-4-4v-2h-3v-3l-2-1-6-8 1-1-3-3v-2h-2l-3-3-2-4-4-2-1-3-3-1-1-5-5-2-6-4-5-5h-2l-2-5-2-6 5 1 3 1-1 4h3v2h3v2l2-1-8-9-5-6v-2l-4-2-15-12v-2l-4-2-4-3v-2l-5-2v-2l-2-1z" fill="#B01652"/>
<path transform="translate(986,563)" d="m0 0 2 2 3 36 4 58 5 56 11 90 3 17v3h2l-1 3-5-1-5-10-2-9v-14-3l-2-26v-4l-4-1 2-2-1-5v-5l-1-2 1-4-1-4-1-9-3-31-2-27v-12l-1-2v-15l-1-5-1-21-1-10-1-8-1-17-1-11z" fill="#852571"/>
<path transform="translate(362,154)" d="m0 0 2 1h2 5l3 3 2 9v4l3 1 2 4-1 3 2 1-1 4 1 3v3l5-2 1-2-2-1 4-1 2 2h-2l-1 6-2 5-2-4-3 1v2h-3l3 9-1 7-1 4v9l-1 2h2v4l2 1-3 8-3-1v-2h-2l-1-8-2-2-1-10v-5l-2-6v-12l-3-5-2 2-4-34z" fill="#E22D81"/>
<path transform="translate(965,443)" d="m0 0 2 2 10 44 7 37 3 24 1 15-2 1-1 4h-2l-2-23-1-9-2-15-6-28-4-27-3-13-1-9z" fill="#AF1756"/>
<path transform="translate(810,204)" d="m0 0 4 1 10 9 8 7 28 28 9 11 8 9 13 18 10 14-1 2-9-10-4-7-3-4v-2h-2l-6-8-1-3h-2v-2h-2v-2l-5-2-3-7-8-7-9-11-3-3v-2l-4-2-15-12v-2l-4-2-4-3v-2l-5-2v-2l-2-1z" fill="#81226F"/>
<path transform="translate(986,563)" d="m0 0 2 2 3 36 2 30v29l-3-3v-15l-1-5-1-21-1-10-1-8-1-17-1-11z" fill="#7F226F"/>
<path transform="translate(559,115)" d="m0 0h18l19 1-2 2h-12l-9-1-1 4h-24l-6 1h-9l-4-2 1-1-11 1-7 1h-10v-1l22-3z" fill="#E43686"/>
<path transform="translate(771,614)" d="m0 0h1l2 31v15h2l1 30 2 20v21h-1l-3-35-4-61z" fill="#9B276F"/>
<path transform="translate(779,734)" d="m0 0h2l7 70 2 13v7l-2-4-5-35-4-37z" fill="#AE2165"/>
<path transform="translate(399,679)" d="m0 0h1v15l-1 9-1 27-3 11-4 19-2 1 8-64z" fill="#E5408D"/>
<path transform="translate(688,137)" d="m0 0 5 1 2 2 4-2 23 9v3l5 2-2 2-7-3-10-3-4-1v-2l-6-1v-3l-5 1-6-3z" fill="#D92D7C"/>
<path transform="translate(810,204)" d="m0 0 4 1 10 9 8 7 14 14-2 2-2-4-4-2-15-12v-2l-4-2-4-3v-2l-5-2v-2l-2-1z" fill="#CC297C"/>
<path transform="translate(291,960)" d="m0 0 2 1-10 8-15 9-23 12-1 3h-4v-2l11-7 24-13z" fill="#fff"/>
<path transform="translate(377,274)" d="m0 0h1l1 13h2l3 21v16h-1l-6-42z" fill="#DBA1C1"/>
<path transform="translate(1410,142)" d="m0 0h6l-2 3-8 1-15 5-6 3-2-1 12-7z" fill="#fff"/>
<path transform="translate(776,690)" d="m0 0h1l2 20v21h-1l-2-21z" fill="#852270"/>
<path transform="translate(1357,175)" d="m0 0 2 1-11 13-4 5-2-1 2-5 8-9 3-1z" fill="#D45384"/>
<path transform="translate(779,734)" d="m0 0h2l2 22v8h-1v-6h-2l-1-10z" fill="#B1195A"/>
<path transform="translate(948,397)" d="m0 0h2l9 24 1 6-2-2-8-19z" fill="#882371"/>
<path transform="translate(781,758)" d="m0 0h1v6h2l1 10v15l-2-4-2-17z" fill="#A32467"/>
<path transform="translate(1009,812)" d="m0 0h3l2 13h2l-1 3h-4l-2-11z" fill="#E02B80"/>
<path transform="translate(720,148)" d="m0 0 6 1 12 6-3 1h-3-3l-3-1v-2l-5-3z" fill="#BE1F5F"/>
<path transform="translate(585,1397)" d="m0 0h1v11l-2 3-2 13h-1v-8l2-15z" fill="#F197C1"/>
<path transform="translate(883,280)" d="m0 0h2l12 17 3 4-1 2-9-10-4-7-3-4z" fill="#8B2371"/>
<path transform="translate(1362,1453)" d="m0 0h1v26l-1 2h-2l1-15z" fill="#fff"/>
<path transform="translate(768,1459)" d="m0 0 8 6v2l4 2 4 4-7-2-8-8z" fill="#C61C56"/>
<path transform="translate(1017,1277)" d="m0 0 5 1 5 12-1 4-7-14z" fill="#fff"/>
<path transform="translate(1131,1277)" d="m0 0 4 1 3 4 3 9-1 3-7-14z" fill="#fff"/>
<path transform="translate(431,1470)" d="m0 0h1v12l-3 3h-2l3-9z" fill="#fff"/>
<path transform="translate(845,236)" d="m0 0 4 2 6 7-6-2-4-5z" fill="#A02575"/>
<path transform="translate(1413,145)" d="m0 0v3l-7 8-5 4 2-4z" fill="#fff"/>
<path transform="translate(1258,1274)" d="m0 0h3l-2 9-2 6-1-4z" fill="#fff"/>
</svg>
